<?xml version="1.0" encoding="utf-8"?>
<!-- Generator: Adobe Illustrator 23.0.3, SVG Export Plug-In . SVG Version: 6.00 Build 0)  -->
<svg version="1.1" xmlns="http://www.w3.org/2000/svg" xmlns:xlink="http://www.w3.org/1999/xlink" x="0px" y="0px"
	 viewBox="0 0 425.67 425.67" style="enable-background:new 0 0 425.67 425.67;" xml:space="preserve">
<style type="text/css">
	.st0{fill:#848484;}
	.st1{display:none;}
	.st2{display:inline;}
	.st3{fill:#E0EFF6;}
	.st4{fill:#FAC700;}
	.st5{fill:#C1DFF2;}
	.st6{fill:#FF9614;}
	.st7{opacity:0.36;fill:#FFBB00;}
	.st8{fill:#FFFFFF;}
	.st9{fill:#E2A322;}
	.st10{fill:#E3E3E2;}
	.st11{fill:#DE453B;}
	.st12{fill:#A94644;}
</style>
<g id="Layer_3">
	<circle class="st0" cx="212.84" cy="212.84" r="212.84"/>
</g>
<g id="BACKGROUND" class="st1">
	<g class="st2">
		<g id="XMLID_1_">
			<g>
				<rect x="-37.17" y="-37.16" class="st0" width="500" height="500"/>
			</g>
			<g>
			</g>
		</g>
	</g>
</g>
<g id="OBJECTS">
	<g>
		<g>
			<path class="st3" d="M192.31,149.22c0,0,21.7,75.16,25,100.88c3.3,25.72-4.63,28.68-13.77,34.15c0,0-68.63,26.1-85.86,11.87
				c-17.22-14.23-38.24-115.03-38.24-115.03"/>
			<path class="st4" d="M89.56,165.76c0,0,20.49,105.73,34.68,117.45c14.19,11.72,70.73-9.78,70.73-9.78
				c7.53-4.5,14.06-6.94,11.35-28.13c-2.72-21.19-22.24-106.79-22.24-106.79S125.65,125.92,89.56,165.76z"/>
			<g>
				<g>
					<path class="st5" d="M88.85,198.88c1.85,10.19,4.89,20.1,7.3,30.16c0.29,1.2,2.13,0.69,1.84-0.51
						c-2.41-10.06-5.44-19.97-7.3-30.16C90.48,197.17,88.63,197.68,88.85,198.88L88.85,198.88z"/>
				</g>
			</g>
			<g>
				<g>
					<path class="st5" d="M96.76,233.21c0.33,0.02,0.75,0.07,1.03-0.14c0.42-0.31,0.62-0.81,0.34-1.31
						c-0.16-0.28-0.41-0.39-0.69-0.51c-0.48-0.2-1.05,0.21-1.18,0.67c-0.15,0.55,0.19,0.98,0.67,1.18
						c-0.04-0.01-0.08-0.03-0.12-0.04c-0.11-0.11-0.23-0.23-0.34-0.34c0,0.01,0.01,0.01,0.01,0.02c0.11-0.44,0.23-0.87,0.34-1.31
						c0.38-0.08,0.46-0.11,0.23-0.1c-0.1,0-0.2-0.01-0.3-0.01C95.53,231.23,95.54,233.14,96.76,233.21L96.76,233.21z"/>
				</g>
			</g>
			<g>
				<g>
					<path class="st5" d="M97.8,235.81c0.19-0.06,0.21-0.08,0.06-0.05c-0.31-0.23-0.61-0.47-0.92-0.7c0,0.01,0,0.03,0.01,0.04
						c0.03-0.25,0.06-0.49,0.1-0.74c-0.01,0.02-0.03,0.05-0.04,0.07c-0.61,1.07,1.05,2.04,1.65,0.97c0.16-0.29,0.18-0.53,0.13-0.85
						c-0.07-0.45-0.53-0.65-0.92-0.7c-0.2-0.03-0.39,0.04-0.57,0.11c-0.48,0.19-0.82,0.64-0.67,1.18
						C96.74,235.6,97.31,236,97.8,235.81L97.8,235.81z"/>
				</g>
			</g>
			<g>
				<g>
					<path class="st5" d="M98.07,238.44c0.25,0.06,0.45,0.06,0.7,0.02c0.31-0.05,0.6-0.37,0.67-0.67c0.08-0.33,0.02-0.58-0.13-0.87
						c-0.55-1.1-2.2-0.13-1.65,0.97c0.01,0.03,0.03,0.06,0.04,0.09c-0.03-0.25-0.06-0.49-0.1-0.74c0,0.02-0.01,0.03-0.01,0.05
						c0.22-0.22,0.45-0.45,0.67-0.67c-0.02,0-0.04,0.01-0.07,0.01c0.17,0,0.34,0,0.51,0c-0.04-0.01-0.08-0.02-0.12-0.03
						C97.38,236.32,96.86,238.17,98.07,238.44L98.07,238.44z"/>
				</g>
			</g>
			<g>
				<g>
					<path class="st5" d="M99.37,244.21c4.3,10.96,6.19,22.79,12.55,32.88c0.65,1.04,2.31,0.08,1.65-0.97
						c-6.26-9.95-8.11-21.62-12.35-32.43C100.77,242.56,98.92,243.06,99.37,244.21L99.37,244.21z"/>
				</g>
			</g>
			<g>
				<g>
					<path class="st5" d="M116.07,284.68c0.1-0.08,0.21-0.16,0.31-0.24c0.41-0.31,0.63-0.82,0.34-1.31c-0.24-0.4-0.9-0.66-1.31-0.34
						c-0.1,0.08-0.21,0.16-0.31,0.24c-0.41,0.31-0.63,0.82-0.34,1.31C114.99,284.74,115.66,285,116.07,284.68L116.07,284.68z"/>
				</g>
			</g>
			<g>
				<g>
					<path class="st5" d="M118.11,287.34c0.1-0.08,0.21-0.16,0.31-0.24c0.41-0.31,0.63-0.82,0.34-1.31c-0.24-0.4-0.9-0.66-1.31-0.34
						c-0.1,0.08-0.21,0.16-0.31,0.24c-0.41,0.31-0.63,0.82-0.34,1.31C117.03,287.4,117.7,287.65,118.11,287.34L118.11,287.34z"/>
				</g>
			</g>
			<g>
				<g>
					<path class="st5" d="M120.65,290.11c1.23,0,1.23-1.91,0-1.91C119.42,288.2,119.42,290.11,120.65,290.11L120.65,290.11z"/>
				</g>
			</g>
			<g>
				<g>
					<path class="st5" d="M202.17,279.07c7.38-5.33,10.32-12.7,9.51-21.69c-0.11-1.22-2.02-1.23-1.91,0
						c0.74,8.23-1.75,15.12-8.57,20.04C200.22,278.13,201.17,279.79,202.17,279.07L202.17,279.07z"/>
				</g>
			</g>
			<g>
				<g>
					<path class="st5" d="M211.27,254.19c1.23,0,1.23-1.91,0-1.91C210.04,252.28,210.04,254.19,211.27,254.19L211.27,254.19z"/>
				</g>
			</g>
			<g>
				<g>
					<path class="st5" d="M211.67,250.4c0.03-0.02,0.07-0.04,0.1-0.06c-0.16,0.04-0.32,0.09-0.48,0.13c0.03,0,0.06,0.01,0.09,0.01
						c-0.23-0.09-0.45-0.19-0.68-0.28c0.03,0.03,0.05,0.06,0.08,0.09c0.84,0.9,2.19-0.45,1.35-1.35c-0.39-0.42-0.95-0.49-1.43-0.19
						C209.66,249.4,210.62,251.05,211.67,250.4L211.67,250.4z"/>
				</g>
			</g>
			<g>
				<g>
					<path class="st5" d="M211.08,247.62c-0.07,0-0.1,0.03-0.09,0.08c1.23,0.06,1.23-1.85,0-1.91c-0.5-0.03-0.89,0.16-1.26,0.48
						C208.8,247.07,210.15,248.42,211.08,247.62L211.08,247.62z"/>
				</g>
			</g>
			<g>
				<g>
					<path class="st5" d="M209.86,236.92c0.34-3.6-1.19-7.58-1.95-11.07c-1.1-5.06-2.27-10.1-3.4-15.15
						c-0.27-1.2-2.11-0.69-1.84,0.51c0.99,4.42,2.01,8.83,2.99,13.26c0.86,3.88,2.67,8.49,2.3,12.46
						C207.83,238.14,209.75,238.13,209.86,236.92L209.86,236.92z"/>
				</g>
			</g>
			<g>
				<g>
					<path class="st5" d="M203.54,207.46c0.14-0.12,0.3-0.16,0.48-0.2c1.2-0.26,0.69-2.11-0.51-1.84c-0.51,0.11-0.93,0.36-1.32,0.69
						c-0.4,0.33-0.34,1.01,0,1.35C202.58,207.85,203.15,207.79,203.54,207.46L203.54,207.46z"/>
				</g>
			</g>
			<g>
				<g>
					<path class="st5" d="M202.52,205.03c0.18-0.02,0.38-0.02,0.55-0.09c0.43-0.16,0.66-0.47,0.7-0.92c0-0.01,0-0.01,0-0.02
						c0.03-0.31-0.2-0.69-0.47-0.83c-0.12-0.06-0.24-0.11-0.37-0.14c-1.19-0.3-1.7,1.55-0.51,1.84c-0.03-0.02-0.06-0.03-0.09-0.05
						c-0.16-0.28-0.32-0.55-0.47-0.83c0,0.01,0,0.01,0,0.02c0.23-0.31,0.47-0.61,0.7-0.92c-0.05,0.01-0.07,0.02-0.04,0.02
						c-0.51,0.06-0.96,0.4-0.96,0.96C201.56,204.54,202,205.08,202.52,205.03L202.52,205.03z"/>
				</g>
			</g>
			<g>
				<g>
					<path class="st5" d="M201.55,202.04c0.21-0.16,0.42-0.32,0.62-0.48c0.41-0.31,0.63-0.82,0.34-1.31
						c-0.24-0.4-0.9-0.66-1.31-0.34c-0.21,0.16-0.42,0.32-0.62,0.48c-0.41,0.31-0.63,0.82-0.34,1.31
						C200.48,202.1,201.14,202.36,201.55,202.04L201.55,202.04z"/>
				</g>
			</g>
			<g>
				<g>
					<path class="st5" d="M200.39,192.75c-1.79-9.18-4.31-18.14-7.14-27.05c-0.37-1.17-2.22-0.67-1.84,0.51
						c2.83,8.91,5.36,17.87,7.14,27.05C198.78,194.46,200.63,193.95,200.39,192.75L200.39,192.75z"/>
				</g>
			</g>
			<g>
				<g>
					<path class="st5" d="M125.46,294.6c4.24,2.07,9.09,1.31,13.5,0.22c1.19-0.3,0.69-2.14-0.51-1.84
						c-3.86,0.96-8.29,1.79-12.03-0.02C125.33,292.41,124.35,294.06,125.46,294.6L125.46,294.6z"/>
				</g>
			</g>
			<g>
				<g>
					<path class="st6" d="M125.45,184.17c-0.07,0.05-0.13,0.1-0.2,0.15c-0.41,0.31-0.63,0.82-0.34,1.31c0.24,0.4,0.9,0.66,1.31,0.34
						c0.07-0.05,0.13-0.1,0.2-0.15c0.41-0.31,0.63-0.82,0.34-1.31C126.52,184.11,125.86,183.86,125.45,184.17L125.45,184.17z"/>
				</g>
			</g>
			<g>
				<g>
					<path class="st6" d="M114.82,182.7c1.23,0,1.23-1.91,0-1.91C113.59,180.79,113.59,182.7,114.82,182.7L114.82,182.7z"/>
				</g>
			</g>
			<g>
				<g>
					<path class="st6" d="M141.33,184.23c1.23,0,1.23-1.91,0-1.91C140.1,182.32,140.1,184.23,141.33,184.23L141.33,184.23z"/>
				</g>
			</g>
			<g>
				<g>
					<path class="st6" d="M157.57,182.15c1.23,0,1.23-1.91,0-1.91C156.34,180.24,156.33,182.15,157.57,182.15L157.57,182.15z"/>
				</g>
			</g>
			<g>
				<g>
					<path class="st6" d="M149.02,174.16c1.23,0,1.23-1.91,0-1.91C147.79,172.25,147.79,174.16,149.02,174.16L149.02,174.16z"/>
				</g>
			</g>
			<g>
				<g>
					<path class="st6" d="M174.29,178.23c1.23,0,1.23-1.91,0-1.91C173.06,176.32,173.06,178.23,174.29,178.23L174.29,178.23z"/>
				</g>
			</g>
			<g>
				<g>
					<path class="st6" d="M187.33,176.67c1.23,0,1.23-1.91,0-1.91C186.1,174.75,186.1,176.67,187.33,176.67L187.33,176.67z"/>
				</g>
			</g>
			<g>
				<g>
					<path class="st6" d="M103.79,198.2c1.23,0,1.23-1.91,0-1.91C102.56,196.29,102.56,198.2,103.79,198.2L103.79,198.2z"/>
				</g>
			</g>
			<g>
				<g>
					<path class="st6" d="M107.03,189.98c1.23,0,1.23-1.91,0-1.91C105.8,188.06,105.79,189.98,107.03,189.98L107.03,189.98z"/>
				</g>
			</g>
			<g>
				<g>
					<path class="st6" d="M166.34,170.15c1.23,0,1.23-1.91,0-1.91C165.11,168.24,165.11,170.15,166.34,170.15L166.34,170.15z"/>
				</g>
			</g>
			<path class="st7" d="M194.62,157.34c-3.45,2.84-9.33,5.36-14.95,6.23c0,0-18.72,1.3-26.49-7.22c0,0-1.23,15.13-23.26,15.6
				c0,0-0.42,19.14-15.83,21.28c0,0-14.18,2.74-24.05-7.65l-8.99,2.92l-1.38-5.49c0,0,23.31-34.99,65.87-38.6
				c42.55-3.62,47.53,7.45,47.53,7.45L194.62,157.34z"/>
			<path class="st8" d="M153.08,127c0,0,11.63-18.23,32.42-10.34c20.79,7.89,18.29,38.71-7.98,42.78c0,0-18.72,1.3-26.49-7.22
				c0,0-1.23,15.13-23.26,15.6c0,0-0.42,19.14-15.83,21.28c0,0-11.57,3.57-21.44-6.82c0,0-22.2,9.48-27.7-6.19
				c0,0-2.88-13.2,12.81-11.93c0,0-19.5-6.81-9.99-28.24c9.51-21.43,37.46-4.5,37.46-4.5s-5.75-26.41,24.03-25.12
				C156.91,107.58,153.08,127,153.08,127z"/>
			<path class="st9" d="M139.71,276.85L139.71,276.85c3.35-0.78,5.45-4.15,4.68-7.5l-15.77-67.9c-0.78-3.35-4.15-5.45-7.5-4.68l0,0
				c-3.35,0.78-5.45,4.15-4.68,7.5l15.77,67.9C132.99,275.53,136.36,277.63,139.71,276.85z"/>
			<path class="st9" d="M162.7,270.97L162.7,270.97c3.35-0.78,5.45-4.15,4.68-7.5l-15.77-67.9c-0.78-3.35-4.15-5.45-7.5-4.68h0
				c-3.35,0.78-5.45,4.15-4.68,7.5l15.77,67.9C155.97,269.64,159.35,271.74,162.7,270.97z"/>
			<path class="st9" d="M186.39,266.17L186.39,266.17c3.35-0.78,5.45-4.15,4.68-7.5l-15.77-67.9c-0.78-3.35-4.15-5.45-7.5-4.68l0,0
				c-3.35,0.78-5.45,4.15-4.68,7.5l15.77,67.9C179.67,264.84,183.04,266.95,186.39,266.17z"/>
			<g>
				<g>
					<path class="st3" d="M89.51,216.13c-9-5-19.61-6.02-24.99,3.88c-6.45,11.88,1.81,26.6,8.12,36.63
						c3.17,5.04,7.99,14.42,14.52,15.69c9.01,1.74,13.89-3.14,17.61-9.6l2.18,9.35c-2.73,8.19-9.27,9.82-14.17,11.18
						c-15.64,4.34-25.02-11.67-31.3-23.4c-7.31-13.67-17.09-40.28-2.79-53.17c7.82-7.05,19.95-7,28.09-0.48L89.51,216.13z"/>
				</g>
				<g>
					<g>
						<path class="st5" d="M70.42,206.98c-4.97,0.46-9.71,3.16-12.3,7.53c-3.34,5.63-2.06,12.46-0.8,18.49
							c0.25,1.22,2.12,0.7,1.86-0.51c-2.04-9.75-1.54-22.38,11.23-23.57C71.65,208.8,71.66,206.87,70.42,206.98L70.42,206.98z"/>
					</g>
				</g>
				<g>
					<g>
						<path class="st5" d="M58.57,238.49c0.39-0.18,0.79-0.35,1.18-0.53c0.48-0.21,0.59-0.91,0.35-1.32
							c-0.29-0.49-0.84-0.56-1.32-0.35c-0.39,0.18-0.78,0.35-1.18,0.53c-0.48,0.21-0.59,0.91-0.35,1.32
							C57.53,238.63,58.09,238.7,58.57,238.49L58.57,238.49z"/>
					</g>
				</g>
				<g>
					<g>
						<path class="st5" d="M59.54,240.89c0.15-0.05,0.3-0.09,0.45-0.14c1.19-0.36,0.68-2.23-0.51-1.86
							c-0.05,0.01-0.09,0.03-0.14,0.04c-1.19,0.36-0.68,2.23,0.51,1.86c0.05-0.01,0.09-0.03,0.14-0.04
							c-0.17-0.62-0.34-1.24-0.51-1.86c-0.15,0.05-0.3,0.09-0.45,0.14C57.84,239.39,58.35,241.26,59.54,240.89L59.54,240.89z"/>
					</g>
				</g>
				<g>
					<g>
						<path class="st5" d="M60.92,243.2c0.2-0.2,0.38-0.4,0.47-0.68c0.22-0.73-0.49-1.35-1.19-1.19c-0.12,0.03-0.24,0.09-0.34,0.15
							c-1.07,0.63-0.1,2.3,0.98,1.67c-0.04,0.01-0.08,0.03-0.12,0.04c-0.4-0.4-0.79-0.79-1.19-1.19c0.12-0.41,0.21-0.36,0.03-0.17
							C58.69,242.73,60.05,244.1,60.92,243.2L60.92,243.2z"/>
					</g>
				</g>
				<g>
					<g>
						<path class="st5" d="M77.98,275.04c5.24,6.27,16.53,6.27,21.61,0c0.78-0.96-0.58-2.33-1.37-1.37c-4.43,5.47-14.28,5.5-18.88,0
							C78.55,272.72,77.19,274.09,77.98,275.04L77.98,275.04z"/>
					</g>
				</g>
				<g>
					<g>
						<path class="st5" d="M77.16,273.22c0.05-0.1,0.11-0.2,0.16-0.3c0.58-1.1-1.08-2.08-1.67-0.98c-0.02,0.03-0.03,0.07-0.05,0.1
							c-0.58,1.1,1.08,2.08,1.67,0.98c0.02-0.03,0.03-0.07,0.05-0.1c-0.56-0.33-1.11-0.65-1.67-0.98c-0.05,0.1-0.11,0.2-0.16,0.3
							C74.91,273.34,76.57,274.32,77.16,273.22L77.16,273.22z"/>
					</g>
				</g>
				<g>
					<g>
						<path class="st5" d="M74.53,271.33c0.09-0.08,0.17-0.16,0.26-0.25c0.9-0.86-0.47-2.22-1.37-1.37
							c-0.09,0.08-0.17,0.16-0.26,0.25C72.26,270.82,73.63,272.18,74.53,271.33L74.53,271.33z"/>
					</g>
				</g>
				<g>
					<g>
						<path class="st5" d="M72.86,269.01c0.06-0.08,0.06-0.08,0.17-0.15c1.06-0.65,0.09-2.33-0.98-1.67
							c-0.36,0.23-0.62,0.49-0.87,0.84C70.49,269.06,72.16,270.03,72.86,269.01L72.86,269.01z"/>
					</g>
				</g>
			</g>
			<g>
				<g>
					<path class="st10" d="M94.86,182.2c7.71,7.02,18.36,4.13,24.41-3.42c0.83-1.04-0.63-2.52-1.47-1.47
						c-5.28,6.58-14.46,9.79-21.47,3.42C95.34,179.82,93.87,181.29,94.86,182.2L94.86,182.2z"/>
				</g>
			</g>
			<g>
				<g>
					<path class="st10" d="M119.61,175.87c0.32,0.19,0.65,0.37,0.98,0.54c1.19,0.61,2.25-1.19,1.05-1.8
						c-0.33-0.17-0.66-0.35-0.98-0.54C119.5,173.39,118.45,175.19,119.61,175.87L119.61,175.87z"/>
				</g>
			</g>
			<g>
				<g>
					<path class="st10" d="M121.26,173.44c0.15,0.06,0.3,0.13,0.44,0.21c1.19,0.62,2.24-1.18,1.05-1.8
						c-0.3-0.16-0.62-0.29-0.94-0.42c-0.53-0.2-1.14,0.22-1.28,0.73C120.37,172.74,120.73,173.24,121.26,173.44L121.26,173.44z"/>
				</g>
			</g>
			<g>
				<g>
					<path class="st10" d="M122.55,171c1.34,0,1.34-2.08,0-2.08C121.2,168.91,121.2,171,122.55,171L122.55,171z"/>
				</g>
			</g>
			<g>
				<g>
					<path class="st10" d="M156.8,152.5c9.96,7.63,29.39,5.7,34.96-6.24c0.56-1.21-1.23-2.27-1.8-1.05
						c-5.06,10.87-23.02,12.46-32.11,5.5C156.79,149.89,155.75,151.69,156.8,152.5L156.8,152.5z"/>
				</g>
			</g>
			<g>
				<g>
					<path class="st10" d="M192.28,143.38c0.18,0.07,0.37,0.14,0.57,0.11c0.42-0.05,0.92-0.28,1-0.76c0.06-0.35,0.03-0.61-0.14-0.91
						c-0.65-1.17-2.45-0.12-1.8,1.05c0.01,0.02,0.03,0.05,0.04,0.07c-0.04-0.27-0.07-0.54-0.11-0.8c0,0.01,0,0.03-0.01,0.04
						c0.33-0.25,0.67-0.51,1-0.76c0.18,0.03,0.17,0.02-0.01-0.04c-0.52-0.21-1.15,0.23-1.28,0.73
						C191.39,142.7,191.76,143.17,192.28,143.38L192.28,143.38z"/>
				</g>
			</g>
			<g>
				<g>
					<path class="st10" d="M193.03,140.08c0.07,0.06,0.14,0.11,0.22,0.17c0.44,0.35,1.04,0.43,1.47,0c0.36-0.36,0.45-1.12,0-1.47
						c-0.02-0.02-0.05-0.04-0.07-0.06c-0.44-0.35-1.04-0.43-1.47,0c-0.36,0.36-0.45,1.12,0,1.47c0.02,0.02,0.05,0.04,0.07,0.06
						c0.49-0.49,0.98-0.98,1.47-1.47c-0.07-0.06-0.14-0.11-0.22-0.17c-0.44-0.35-1.04-0.43-1.47,0
						C192.67,138.97,192.58,139.73,193.03,140.08L193.03,140.08z"/>
				</g>
			</g>
			<g>
				<g>
					<path class="st10" d="M193.21,136.97c0.09,0.03,0.18,0.07,0.27,0.1c0.53,0.19,1.14-0.21,1.28-0.73
						c0.16-0.58-0.2-1.09-0.73-1.28c-0.09-0.03-0.18-0.07-0.27-0.1c-0.53-0.19-1.14,0.21-1.28,0.73
						C192.33,136.27,192.68,136.78,193.21,136.97L193.21,136.97z"/>
				</g>
			</g>
			<g>
				<g>
					<path class="st10" d="M194.2,128.91c-0.74-4.92-5.63-8.35-9.85-10.31c-5.89-2.74-11.6-1.31-17.61,0.27
						c-1.3,0.34-0.75,2.35,0.55,2.01c5.14-1.35,10.26-2.79,15.42-0.69c3.96,1.62,8.8,4.74,9.48,9.27
						C192.39,130.78,194.4,130.22,194.2,128.91L194.2,128.91z"/>
				</g>
			</g>
			<g>
				<g>
					<path class="st10" d="M162.2,121.13c0.05,0.31,0.17,0.6,0.31,0.88c0.25,0.5,0.96,0.64,1.43,0.37c0.51-0.3,0.63-0.92,0.37-1.43
						c-0.06-0.12-0.08-0.25-0.1-0.38c-0.1-0.55-0.78-0.87-1.28-0.73C162.34,120.01,162.1,120.57,162.2,121.13L162.2,121.13z"/>
				</g>
			</g>
			<g>
				<g>
					<path class="st10" d="M160.28,123.07c0.1,0.21,0.21,0.42,0.34,0.62c0.72,1.13,2.52,0.09,1.8-1.05c-0.13-0.2-0.24-0.4-0.34-0.62
						c-0.24-0.51-0.97-0.64-1.43-0.37C160.13,121.95,160.04,122.55,160.28,123.07L160.28,123.07z"/>
				</g>
			</g>
			<g>
				<g>
					<path class="st10" d="M158.73,125.48c0.17,0.4,0.56,0.72,1.02,0.69c0.48-0.03,0.85-0.31,1-0.76c0.01-0.02,0.01-0.04,0.02-0.06
						c0.42-1.28-1.59-1.82-2.01-0.55c-0.01,0.02-0.01,0.04-0.02,0.06c0.33-0.25,0.67-0.51,1-0.76c-0.01,0-0.02,0-0.03,0
						c0.3,0.17,0.6,0.34,0.9,0.52c-0.04-0.05-0.07-0.11-0.09-0.18c-0.22-0.52-0.98-0.63-1.43-0.37
						C158.57,124.37,158.51,124.96,158.73,125.48L158.73,125.48z"/>
				</g>
			</g>
			<g>
				<g>
					<path class="st10" d="M106.97,128.41c1.59-9.4,9.44-18.52,19.93-17.04c1.31,0.18,1.88-1.82,0.55-2.01
						c-11.56-1.63-20.69,7.81-22.49,18.5C104.74,129.17,106.75,129.73,106.97,128.41L106.97,128.41z"/>
				</g>
			</g>
			<g>
				<g>
					<path class="st10" d="M130.9,110.71c0.04-0.03,0.03,0.01-0.05,0.13c-0.21,0.52,0.23,1.14,0.73,1.28
						c0.59,0.16,1.07-0.2,1.28-0.73c0.09-0.22,0.11-0.45,0.12-0.68C133.02,109.37,130.94,109.37,130.9,110.71L130.9,110.71z"/>
				</g>
			</g>
			<g>
				<g>
					<path class="st10" d="M133.57,111.05c0.04,0.1,0.03,0.18-0.03,0.26c-0.42,1.28,1.59,1.82,2.01,0.55
						c0.09-0.26,0.12-0.53,0.1-0.81c-0.04-0.56-0.45-1.04-1.04-1.04C134.07,110,133.53,110.48,133.57,111.05L133.57,111.05z"/>
				</g>
			</g>
			<g>
				<g>
					<path class="st10" d="M136.28,111.23c0,0.07-0.02,0.13-0.05,0.19c0.24-0.24,0.49-0.49,0.73-0.73c-0.01,0-0.02,0-0.03,0.01
						c0.39,0.16,0.78,0.32,1.18,0.48c-0.01-0.02-0.02-0.04-0.03-0.06c-0.71-1.13-2.52-0.09-1.8,1.05c0.01,0.02,0.02,0.04,0.03,0.06
						c0.26,0.42,0.7,0.56,1.18,0.48c0.45-0.08,0.73-0.51,0.81-0.93c0.09-0.55-0.15-1.12-0.73-1.28
						C137.06,110.37,136.38,110.68,136.28,111.23L136.28,111.23z"/>
				</g>
			</g>
			<g>
				<g>
					<path class="st10" d="M142.59,115.26c2.06,0.76,2.64,3.22,3.25,5.09c0.41,1.27,2.43,0.73,2.01-0.55
						c-0.88-2.71-1.81-5.47-4.71-6.55C141.88,112.78,141.34,114.79,142.59,115.26L142.59,115.26z"/>
				</g>
			</g>
			<g>
				<g>
					<path class="st10" d="M81.46,128.34c-13.79-1.1-20.36,18.3-11.06,27.16c0.97,0.93,2.45-0.55,1.47-1.47
						c-8.02-7.64-2.42-24.56,9.59-23.6C82.8,130.53,82.79,128.44,81.46,128.34L81.46,128.34z"/>
				</g>
			</g>
			<g>
				<g>
					<path class="st10" d="M74.49,155.62c-0.47,0.22-0.87,0.63-1.07,1.11c-0.22,0.52-0.16,1.12,0.37,1.43
						c0.44,0.26,1.21,0.15,1.43-0.37c0.1-0.24,0.09-0.26,0.32-0.37c0.51-0.23,0.64-0.97,0.37-1.43
						C75.61,155.47,75,155.39,74.49,155.62L74.49,155.62z"/>
				</g>
			</g>
			<g>
				<g>
					<path class="st10" d="M76.01,159.28c0.04-0.01,0.09-0.01,0.13-0.02c0.56-0.07,1.04-0.43,1.04-1.04c0-0.51-0.48-1.11-1.04-1.04
						c-0.04,0.01-0.09,0.01-0.13,0.02c-0.56,0.07-1.04,0.43-1.04,1.04C74.97,158.75,75.45,159.35,76.01,159.28L76.01,159.28z"/>
				</g>
			</g>
			<g>
				<g>
					<path class="st10" d="M70.28,166.42c-4.15,1.31-5.65,6.45-3.93,10.22c2.17,4.76,7.5,4.95,12.05,4.66
						c1.33-0.08,1.34-2.17,0-2.08c-2.94,0.19-6.72,0.52-9.01-1.75c-2.48-2.46-2.29-7.86,1.45-9.04
						C72.11,168.02,71.56,166.01,70.28,166.42L70.28,166.42z"/>
				</g>
			</g>
			<g>
				<g>
					<path class="st10" d="M81.16,179.14c0.05,0.49,0.13,0.96,0.31,1.43c0.2,0.53,0.7,0.89,1.28,0.73c0.51-0.14,0.93-0.75,0.73-1.28
						c-0.11-0.28-0.2-0.57-0.23-0.87c-0.06-0.56-0.44-1.04-1.04-1.04C81.68,178.1,81.1,178.57,81.16,179.14L81.16,179.14z"/>
				</g>
			</g>
			<g>
				<g>
					<path class="st10" d="M83.54,179.26c0.1,0.26,0.1,0.37,0.01,0.63c-0.19,0.53,0.21,1.14,0.73,1.28c0.58,0.16,1.09-0.2,1.28-0.73
						c0.2-0.56,0.2-1.17-0.01-1.73c-0.2-0.53-0.71-0.89-1.28-0.73C83.76,178.12,83.34,178.73,83.54,179.26L83.54,179.26z"/>
				</g>
			</g>
			<g>
				<g>
					<path class="st10" d="M84.23,128.91c-0.07,0.18-0.13,0.37-0.2,0.55c-0.19,0.53,0.21,1.14,0.73,1.28
						c0.58,0.16,1.09-0.2,1.28-0.73c0.07-0.18,0.13-0.37,0.2-0.55c0.19-0.53-0.21-1.14-0.73-1.28
						C84.94,128.02,84.42,128.38,84.23,128.91L84.23,128.91z"/>
				</g>
			</g>
			<g>
				<g>
					<path class="st10" d="M87.73,129.56c-0.07,0.14-0.14,0.28-0.21,0.42c-0.25,0.5-0.13,1.13,0.37,1.43
						c0.46,0.27,1.17,0.13,1.43-0.37c0.07-0.14,0.14-0.28,0.21-0.42c0.25-0.5,0.13-1.13-0.37-1.43
						C88.69,128.92,87.98,129.06,87.73,129.56L87.73,129.56z"/>
				</g>
			</g>
			<g>
				<g>
					<path class="st10" d="M130.23,164.46c6.83-0.5,12.1-3.94,15.2-10.07c0.6-1.19-1.19-2.25-1.8-1.05
						c-2.75,5.44-7.28,8.59-13.4,9.04C128.9,162.47,128.89,164.55,130.23,164.46L130.23,164.46z"/>
				</g>
			</g>
		</g>
		<g>
			<path class="st3" d="M212.43,140.88c0,0-25.98,89.99-29.93,120.79c-3.95,30.8,5.54,34.34,16.49,40.88
				c0,0,82.18,31.25,102.8,14.22c20.62-17.03,45.79-137.73,45.79-137.73"/>
			<path class="st4" d="M335.46,160.68c0,0-24.53,126.59-41.52,140.62c-16.99,14.03-84.68-11.71-84.68-11.71
				c-9.02-5.39-16.84-8.31-13.58-33.68s26.63-127.87,26.63-127.87S292.24,112.99,335.46,160.68z"/>
			<g>
				<g>
					<path class="st5" d="M334.09,199.74c-2.2,12.2-5.87,24.06-8.74,36.11c-0.34,1.43,1.87,2.04,2.21,0.61
						c2.87-12.05,6.54-23.9,8.74-36.11C336.56,198.91,334.35,198.29,334.09,199.74L334.09,199.74z"/>
				</g>
			</g>
			<g>
				<g>
					<path class="st5" d="M326.83,239.16c-0.13,0.01-0.26,0.01-0.39,0.02c-0.15,0.01-0.25-0.08,0.05,0.02
						c0.23,0.18,0.46,0.35,0.68,0.53c0-0.01-0.01-0.01-0.01-0.02c-0.06,0.46-0.12,0.93-0.18,1.39c-0.12,0.07-0.24,0.14-0.36,0.22
						c0.57-0.23,0.98-0.76,0.8-1.41c-0.15-0.54-0.83-1.03-1.41-0.8c-0.23,0.09-0.47,0.18-0.65,0.37c-0.35,0.39-0.43,0.92-0.18,1.39
						c0.34,0.62,1.04,0.63,1.65,0.59c0.62-0.04,1.14-0.5,1.14-1.14C327.98,239.71,327.45,239.12,326.83,239.16L326.83,239.16z"/>
				</g>
			</g>
			<g>
				<g>
					<path class="st5" d="M326.2,242.35c-0.42-0.17-0.86-0.22-1.26,0.03c-0.32,0.19-0.61,0.6-0.57,0.99
						c0.03,0.27,0.07,0.47,0.21,0.7c0.75,1.26,2.74,0.11,1.98-1.16c-0.02-0.03-0.03-0.05-0.05-0.08c0.05,0.19,0.1,0.39,0.16,0.58
						c0-0.02,0-0.03-0.01-0.05c-0.19,0.33-0.38,0.66-0.57,0.99c0.01-0.01,0.02-0.01,0.03-0.02c-0.19,0.05-0.39,0.1-0.58,0.16
						c-0.17-0.01-0.15,0.01,0.04,0.06c0.57,0.23,1.26-0.25,1.41-0.8C327.18,243.1,326.78,242.58,326.2,242.35L326.2,242.35z"/>
				</g>
			</g>
			<g>
				<g>
					<path class="st5" d="M324.66,245.5c0.03,0,0.07-0.01,0.1-0.01c0.19,0.05,0.39,0.1,0.58,0.16c-0.01-0.01-0.02-0.02-0.04-0.03
						c0.19,0.33,0.38,0.66,0.57,0.99c0-0.02,0-0.04,0.01-0.06c-0.05,0.19-0.1,0.39-0.16,0.58c0.02-0.03,0.03-0.06,0.05-0.09
						c0.7-1.3-1.27-2.45-1.98-1.16c-0.6,1.1,0.32,2.11,1.48,1.83C326.7,247.35,326.09,245.15,324.66,245.5L324.66,245.5z"/>
				</g>
			</g>
			<g>
				<g>
					<path class="st5" d="M321.5,254c-5.1,12.92-7.25,26.94-14.79,38.83c-0.79,1.25,1.19,2.4,1.98,1.16
						c7.64-12.06,9.85-26.26,15.02-39.37C324.25,253.24,322.04,252.64,321.5,254L321.5,254z"/>
				</g>
			</g>
			<g>
				<g>
					<path class="st5" d="M304.87,301.1c-0.12-0.1-0.25-0.19-0.37-0.29c-0.49-0.38-1.28-0.08-1.57,0.41
						c-0.35,0.59-0.08,1.19,0.41,1.57c0.12,0.1,0.25,0.19,0.37,0.29c0.49,0.38,1.28,0.08,1.57-0.41
						C305.63,302.07,305.36,301.48,304.87,301.1L304.87,301.1z"/>
				</g>
			</g>
			<g>
				<g>
					<path class="st5" d="M302.43,304.28c-0.12-0.1-0.25-0.19-0.37-0.29c-0.49-0.38-1.28-0.08-1.57,0.41
						c-0.35,0.59-0.08,1.19,0.41,1.57c0.12,0.1,0.25,0.19,0.37,0.29c0.49,0.38,1.28,0.08,1.57-0.41
						C303.18,305.25,302.92,304.65,302.43,304.28L302.43,304.28z"/>
				</g>
			</g>
			<g>
				<g>
					<path class="st5" d="M298.23,309.57c1.47,0,1.48-2.29,0-2.29C296.75,307.28,296.75,309.57,298.23,309.57L298.23,309.57z"/>
				</g>
			</g>
			<g>
				<g>
					<path class="st5" d="M201.78,294.37c-8.16-5.89-11.14-14.16-10.26-23.99c0.13-1.47-2.16-1.46-2.29,0
						c-0.96,10.76,2.56,19.59,11.39,25.97C201.82,297.21,202.96,295.23,201.78,294.37L201.78,294.37z"/>
				</g>
			</g>
			<g>
				<g>
					<path class="st5" d="M189.73,266.57c1.47,0,1.48-2.29,0-2.29C188.25,264.28,188.25,266.57,189.73,266.57L189.73,266.57z"/>
				</g>
			</g>
			<g>
				<g>
					<path class="st5" d="M190.41,260.05c-0.58-0.36-1.25-0.28-1.72,0.22c-1,1.08,0.61,2.7,1.62,1.62c0.03-0.04,0.07-0.07,0.1-0.11
						c-0.27,0.11-0.54,0.22-0.81,0.34c0.04,0,0.07-0.01,0.11-0.01c-0.19-0.05-0.39-0.1-0.58-0.16c0.04,0.03,0.08,0.05,0.12,0.08
						C190.5,262.81,191.65,260.83,190.41,260.05L190.41,260.05z"/>
				</g>
			</g>
			<g>
				<g>
					<path class="st5" d="M191.57,257.08c-0.43-0.38-0.93-0.62-1.51-0.58c-0.62,0.04-1.14,0.5-1.14,1.14c0,0.59,0.52,1.19,1.14,1.14
						c0.31-0.02-0.03-0.03-0.11-0.09c0.46,0.41,1.16,0.46,1.62,0C191.99,258.28,192.04,257.49,191.57,257.08L191.57,257.08z"/>
				</g>
			</g>
			<g>
				<g>
					<path class="st5" d="M193.7,245.89c-0.57-4.4,1.71-10.21,2.66-14.48c1.2-5.44,2.45-10.87,3.67-16.31
						c0.32-1.44-1.88-2.05-2.21-0.61c-1.37,6.08-2.76,12.14-4.09,18.23c-0.88,4.05-2.85,8.98-2.32,13.17
						C191.6,247.33,193.89,247.35,193.7,245.89L193.7,245.89z"/>
				</g>
			</g>
			<g>
				<g>
					<path class="st5" d="M200.6,209c-0.47-0.4-0.97-0.7-1.58-0.83c-0.6-0.13-1.24,0.18-1.41,0.8c-0.16,0.57,0.19,1.28,0.8,1.41
						c0.22,0.05,0.4,0.09,0.57,0.24c0.47,0.4,1.16,0.46,1.62,0C201.01,210.2,201.07,209.4,200.6,209L200.6,209z"/>
				</g>
			</g>
			<g>
				<g>
					<path class="st5" d="M200.21,205.41c0.08,0.01,0.15,0.04,0.21,0.08c0.14,0.52,0.27,1.04,0.41,1.57
						c0.01-0.01,0.01-0.01,0.02-0.02c-0.23,0.18-0.46,0.35-0.68,0.53c0.05-0.02,0.1-0.04,0.16-0.05c1.43-0.35,0.83-2.56-0.61-2.21
						c-0.38,0.09-0.63,0.28-0.86,0.6c-0.4,0.54-0.04,1.22,0.41,1.57c0.25,0.19,0.65,0.2,0.94,0.23c0.62,0.07,1.14-0.57,1.14-1.14
						C201.35,205.88,200.82,205.48,200.21,205.41L200.21,205.41z"/>
				</g>
			</g>
			<g>
				<g>
					<path class="st5" d="M202.52,202.15c-0.25-0.19-0.5-0.38-0.75-0.57c-0.49-0.38-1.28-0.08-1.57,0.41
						c-0.35,0.59-0.08,1.19,0.41,1.57c0.25,0.19,0.5,0.38,0.75,0.57c0.49,0.38,1.28,0.08,1.57-0.41
						C203.28,203.12,203.01,202.52,202.52,202.15L202.52,202.15z"/>
				</g>
			</g>
			<g>
				<g>
					<path class="st5" d="M204.96,193.61c2.13-10.99,5.16-21.73,8.55-32.39c0.45-1.41-1.76-2.01-2.21-0.61
						c-3.39,10.66-6.43,21.4-8.55,32.39C202.47,194.44,204.68,195.06,204.96,193.61L204.96,193.61z"/>
				</g>
			</g>
			<g>
				<g>
					<path class="st5" d="M291.31,312.97c-4.47,2.18-9.78,1.17-14.4,0.03c-1.43-0.35-2.04,1.85-0.61,2.21
						c5.28,1.31,11.08,2.21,16.16-0.26C293.79,314.3,292.63,312.33,291.31,312.97L291.31,312.97z"/>
				</g>
			</g>
			<g>
				<g>
					<path class="st6" d="M291.32,184.71c0.08,0.06,0.16,0.12,0.24,0.18c0.49,0.38,1.28,0.08,1.57-0.41
						c0.35-0.59,0.08-1.19-0.41-1.57c-0.08-0.06-0.16-0.12-0.24-0.18c-0.49-0.38-1.28-0.08-1.57,0.41
						C290.57,183.73,290.83,184.33,291.32,184.71L291.32,184.71z"/>
				</g>
			</g>
			<g>
				<g>
					<path class="st6" d="M305.2,180.97c1.47,0,1.48-2.29,0-2.29C303.73,178.68,303.73,180.97,305.2,180.97L305.2,180.97z"/>
				</g>
			</g>
			<g>
				<g>
					<path class="st6" d="M273.47,182.8c1.47,0,1.48-2.29,0-2.29C272,180.51,271.99,182.8,273.47,182.8L273.47,182.8z"/>
				</g>
			</g>
			<g>
				<g>
					<path class="st6" d="M254.03,180.31c1.47,0,1.48-2.29,0-2.29C252.55,178.02,252.55,180.31,254.03,180.31L254.03,180.31z"/>
				</g>
			</g>
			<g>
				<g>
					<path class="st6" d="M264.26,170.75c1.47,0,1.48-2.29,0-2.29C262.79,168.46,262.79,170.75,264.26,170.75L264.26,170.75z"/>
				</g>
			</g>
			<g>
				<g>
					<path class="st6" d="M234,175.62c1.47,0,1.48-2.29,0-2.29C232.53,173.33,232.53,175.62,234,175.62L234,175.62z"/>
				</g>
			</g>
			<g>
				<g>
					<path class="st6" d="M218.39,173.74c1.47,0,1.48-2.29,0-2.29C216.91,171.45,216.91,173.74,218.39,173.74L218.39,173.74z"/>
				</g>
			</g>
			<g>
				<g>
					<path class="st6" d="M318.41,199.53c1.47,0,1.48-2.29,0-2.29C316.94,197.24,316.94,199.53,318.41,199.53L318.41,199.53z"/>
				</g>
			</g>
			<g>
				<g>
					<path class="st6" d="M314.54,189.68c1.47,0,1.48-2.29,0-2.29C313.06,187.39,313.06,189.68,314.54,189.68L314.54,189.68z"/>
				</g>
			</g>
			<g>
				<g>
					<path class="st6" d="M243.52,165.95c1.47,0,1.48-2.29,0-2.29C242.05,163.66,242.05,165.95,243.52,165.95L243.52,165.95z"/>
				</g>
			</g>
			<path class="st7" d="M209.67,150.61c4.13,3.4,11.17,6.42,17.9,7.46c0,0,22.41,1.56,31.71-8.65c0,0,1.47,18.11,27.85,18.68
				c0,0,0.51,22.92,18.95,25.47c0,0,16.98,3.28,28.8-9.16l10.77,3.5l1.65-6.58c0,0-27.91-41.89-78.86-46.22
				c-50.95-4.33-56.91,8.92-56.91,8.92L209.67,150.61z"/>
			<path class="st8" d="M259.4,114.28c0,0-13.93-21.83-38.82-12.38c-24.89,9.45-21.9,46.35,9.56,51.22c0,0,22.41,1.56,31.71-8.65
				c0,0,1.47,18.11,27.85,18.68c0,0,0.51,22.92,18.95,25.47c0,0,13.85,4.28,25.67-8.16c0,0,26.58,11.35,33.16-7.42
				c0,0,3.44-15.81-15.34-14.29c0,0,23.35-8.15,11.96-33.81c-11.39-25.66-44.86-5.39-44.86-5.39s6.89-31.62-28.78-30.08
				C254.82,91.02,259.4,114.28,259.4,114.28z"/>
			<path class="st9" d="M275.41,293.7L275.41,293.7c-4.01-0.93-6.53-4.97-5.6-8.99l18.88-81.3c0.93-4.01,4.97-6.53,8.98-5.6l0,0
				c4.01,0.93,6.53,4.97,5.6,8.99l-18.88,81.3C283.46,292.11,279.42,294.63,275.41,293.7z"/>
			<path class="st9" d="M247.89,286.65L247.89,286.65c-4.01-0.93-6.53-4.97-5.6-8.99l18.88-81.3c0.93-4.01,4.97-6.53,8.98-5.6l0,0
				c4.01,0.93,6.53,4.97,5.6,8.99l-18.88,81.3C255.94,285.06,251.9,287.58,247.89,286.65z"/>
			<path class="st9" d="M219.51,280.91L219.51,280.91c-4.01-0.93-6.53-4.97-5.6-8.99l18.88-81.3c0.93-4.01,4.97-6.53,8.98-5.6l0,0
				c4.01,0.93,6.53,4.97,5.6,8.99l-18.88,81.3C227.57,279.32,223.52,281.84,219.51,280.91z"/>
			<g>
				<g>
					<path class="st3" d="M335.52,220.99c10.77-5.99,23.48-7.21,29.92,4.65c7.72,14.23-2.16,31.85-9.72,43.86
						c-3.8,6.03-9.56,17.27-17.38,18.78c-10.79,2.09-16.63-3.75-21.08-11.49l-2.61,11.19c3.27,9.81,11.1,11.75,16.97,13.38
						c18.72,5.2,29.96-13.97,37.47-28.02c8.75-16.37,20.47-48.22,3.34-63.66c-9.37-8.44-23.89-8.38-33.63-0.57L335.52,220.99z"/>
				</g>
				<g>
					<g>
						<path class="st5" d="M358.37,212.36c5.67,0.48,11.14,4.13,13.46,9.38c2.64,5.99,1.28,12.7-0.01,18.84
							c-0.31,1.45,1.93,2.07,2.23,0.62c1.52-7.26,3.1-15.63-1.1-22.33c-3.19-5.08-8.65-8.32-14.58-8.82
							C356.89,209.92,356.9,212.23,358.37,212.36L358.37,212.36z"/>
					</g>
				</g>
				<g>
					<g>
						<path class="st5" d="M373.73,245.76c-0.47-0.21-0.94-0.42-1.41-0.63c-0.57-0.26-1.24-0.16-1.58,0.42
							c-0.29,0.49-0.16,1.33,0.42,1.58c0.47,0.21,0.94,0.42,1.41,0.63c0.57,0.26,1.24,0.17,1.58-0.42
							C374.43,246.85,374.3,246.02,373.73,245.76L373.73,245.76z"/>
					</g>
				</g>
				<g>
					<g>
						<path class="st5" d="M372.01,248.41c-0.18-0.06-0.36-0.11-0.53-0.16c-1.43-0.43-2.04,1.8-0.62,2.23
							c0.06,0.02,0.11,0.03,0.17,0.05c1.43,0.44,2.04-1.8,0.62-2.23c-0.06-0.02-0.11-0.03-0.17-0.05c-0.21,0.74-0.41,1.49-0.62,2.23
							c0.18,0.05,0.36,0.11,0.53,0.16C372.82,251.09,373.43,248.85,372.01,248.41L372.01,248.41z"/>
					</g>
				</g>
				<g>
					<g>
						<path class="st5" d="M371.38,251.77c-0.08-0.08-0.29-0.37-0.08-0.06c0.04,0.3,0.08,0.59,0.12,0.89c0-0.01,0-0.01,0-0.02
							c-0.47,0.27-0.95,0.54-1.42,0.81c-0.05-0.02-0.1-0.03-0.15-0.05c1.28,0.77,2.45-1.24,1.17-2c-0.13-0.08-0.27-0.14-0.41-0.18
							c-0.54-0.19-1.33,0.22-1.42,0.81c-0.1,0.63,0.14,1.01,0.55,1.43C370.78,254.48,372.42,252.84,371.38,251.77L371.38,251.77z"/>
					</g>
				</g>
				<g>
					<g>
						<path class="st5" d="M347.68,289.9c-5.51,6.59-17.3,6.55-22.6,0.01c-0.94-1.16-2.57,0.49-1.64,1.64
							c6.09,7.51,19.6,7.5,25.88-0.01C350.27,290.4,348.64,288.75,347.68,289.9L347.68,289.9z"/>
					</g>
				</g>
				<g>
					<g>
						<path class="st5" d="M352.3,288.18c-0.06-0.12-0.13-0.24-0.19-0.35c-0.67,0.39-1.33,0.78-2,1.17
							c0.02,0.04,0.04,0.08,0.06,0.12c0.7,1.32,2.7,0.15,2-1.17c-0.02-0.04-0.04-0.08-0.06-0.12c-0.7-1.31-2.7-0.15-2,1.17
							c0.06,0.12,0.13,0.24,0.19,0.35C351,290.66,353,289.5,352.3,288.18L352.3,288.18z"/>
					</g>
				</g>
				<g>
					<g>
						<path class="st5" d="M355.08,285.45c-0.1-0.1-0.21-0.2-0.31-0.3c-1.08-1.03-2.72,0.61-1.64,1.64c0.1,0.1,0.21,0.2,0.31,0.3
							C354.53,288.11,356.17,286.48,355.08,285.45L355.08,285.45z"/>
					</g>
				</g>
				<g>
					<g>
						<path class="st5" d="M357.44,283.14c-0.28-0.42-0.6-0.74-1.04-1.01c-1.28-0.78-2.44,1.23-1.17,2c0.1,0.06,0.15,0.09,0.21,0.18
							c0.35,0.52,1.02,0.75,1.58,0.42C357.54,284.43,357.79,283.66,357.44,283.14L357.44,283.14z"/>
					</g>
				</g>
			</g>
			<g>
				<g>
					<path class="st10" d="M327.34,178.6c-8.23,7.61-19.42,3.77-25.7-4.09c-1-1.25-2.76,0.52-1.76,1.76
						c7.18,8.99,20.07,12.57,29.23,4.09C330.29,179.27,328.52,177.51,327.34,178.6L327.34,178.6z"/>
				</g>
			</g>
			<g>
				<g>
					<path class="st10" d="M298.22,170.63c-0.39,0.23-0.78,0.44-1.18,0.64c-0.6,0.31-0.77,1.15-0.45,1.71
						c0.36,0.61,1.1,0.75,1.71,0.45c0.4-0.2,0.79-0.42,1.18-0.64C300.86,171.98,299.61,169.82,298.22,170.63L298.22,170.63z"/>
				</g>
			</g>
			<g>
				<g>
					<path class="st10" d="M296.84,167.48c-0.39,0.15-0.76,0.31-1.13,0.5c-0.6,0.31-0.78,1.15-0.45,1.71
						c0.35,0.61,1.11,0.76,1.71,0.45c0.18-0.09,0.35-0.18,0.53-0.25c0.63-0.24,1.06-0.84,0.87-1.53
						C298.21,167.74,297.47,167.24,296.84,167.48L296.84,167.48z"/>
				</g>
			</g>
			<g>
				<g>
					<path class="st10" d="M295.96,166.95c1.61,0,1.61-2.49,0-2.49C294.35,164.46,294.35,166.95,295.96,166.95L295.96,166.95z"/>
				</g>
			</g>
			<g>
				<g>
					<path class="st10" d="M253.68,142.66c-5.68,4.35-14.56,5.07-21.42,4.48c-7.52-0.65-13.85-4.15-17.02-11.07
						c-0.67-1.46-2.82-0.19-2.15,1.26c3.23,7.05,9.55,10.97,17.17,12.08c7.73,1.12,18.26,0.32,24.69-4.6
						C256.2,143.85,254.96,141.68,253.68,142.66L253.68,142.66z"/>
				</g>
			</g>
			<g>
				<g>
					<path class="st10" d="M211.8,131.49c-0.2,0.06-0.19,0.08,0.01,0.06c0.21,0.06,0.42,0.11,0.63,0.17
						c-0.01-0.01-0.02-0.01-0.03-0.02c0.21,0.36,0.41,0.72,0.62,1.08c0-0.02,0-0.03,0-0.05c-0.06,0.21-0.11,0.42-0.17,0.63
						c0.01-0.02,0.03-0.05,0.04-0.07c0.81-1.39-1.34-2.65-2.15-1.26c-0.15,0.25-0.19,0.46-0.22,0.75c-0.05,0.43,0.27,0.87,0.62,1.08
						c0.42,0.25,0.88,0.22,1.32,0.04c0.62-0.26,1.07-0.83,0.87-1.53C213.18,131.77,212.43,131.23,211.8,131.49L211.8,131.49z"/>
				</g>
			</g>
			<g>
				<g>
					<path class="st10" d="M209.8,128.18c-0.09,0.07-0.17,0.14-0.26,0.2c-0.53,0.42-0.44,1.33,0,1.76c0.52,0.52,1.23,0.42,1.76,0
						c0.03-0.02,0.06-0.04,0.09-0.07c0.53-0.42,0.44-1.33,0-1.76c-0.52-0.52-1.23-0.42-1.76,0c-0.03,0.02-0.06,0.04-0.09,0.07
						c0.59,0.59,1.18,1.18,1.76,1.76c0.09-0.07,0.17-0.14,0.26-0.2c0.53-0.42,0.44-1.33,0-1.76
						C211.04,127.65,210.34,127.76,209.8,128.18L209.8,128.18z"/>
				</g>
			</g>
			<g>
				<g>
					<path class="st10" d="M210.68,123.81c-0.11,0.04-0.22,0.08-0.33,0.12c-0.63,0.23-1.06,0.85-0.87,1.53
						c0.17,0.61,0.9,1.1,1.53,0.87c0.11-0.04,0.22-0.08,0.33-0.12c0.63-0.23,1.06-0.85,0.87-1.53
						C212.05,124.07,211.32,123.59,210.68,123.81L210.68,123.81z"/>
				</g>
			</g>
			<g>
				<g>
					<path class="st10" d="M212.57,117.22c0.7-5.13,6.19-8.84,10.64-10.87c6.32-2.88,12.79-1.08,19.17,0.59
						c1.55,0.41,2.22-2,0.66-2.41c-7.18-1.88-14.06-3.6-21.09-0.34c-4.99,2.32-10.99,6.53-11.78,12.36
						C209.95,118.13,212.35,118.81,212.57,117.22L212.57,117.22z"/>
				</g>
			</g>
			<g>
				<g>
					<path class="st10" d="M246.07,106.59c-0.03,0.15-0.06,0.34-0.12,0.46c-0.31,0.6-0.16,1.35,0.45,1.71
						c0.56,0.33,1.4,0.16,1.71-0.45c0.17-0.34,0.31-0.68,0.37-1.05c0.11-0.66-0.17-1.34-0.87-1.53
						C247.01,105.55,246.18,105.92,246.07,106.59L246.07,106.59z"/>
				</g>
			</g>
			<g>
				<g>
					<path class="st10" d="M248.63,108.31c-0.12,0.26-0.25,0.5-0.4,0.74c-0.36,0.57-0.12,1.38,0.45,1.71
						c0.6,0.35,1.34,0.12,1.71-0.45c0.15-0.24,0.28-0.48,0.4-0.74c0.28-0.61,0.17-1.34-0.45-1.71
						C249.79,107.55,248.91,107.7,248.63,108.31L248.63,108.31z"/>
				</g>
			</g>
			<g>
				<g>
					<path class="st10" d="M250.48,111.2c-0.02,0.08-0.06,0.15-0.11,0.21c0.36-0.21,0.72-0.41,1.08-0.62c-0.01,0-0.02,0-0.04,0
						c0.4,0.31,0.8,0.61,1.2,0.92c-0.01-0.02-0.02-0.05-0.02-0.07c-0.21-0.64-0.86-1.06-1.53-0.87c-0.62,0.17-1.08,0.89-0.87,1.53
						c0.01,0.02,0.02,0.05,0.02,0.07c0.18,0.55,0.63,0.88,1.2,0.92c0.55,0.03,1.02-0.35,1.23-0.83c0.27-0.62,0.18-1.34-0.45-1.71
						C251.66,110.45,250.75,110.58,250.48,111.2L250.48,111.2z"/>
				</g>
			</g>
			<g>
				<g>
					<path class="st10" d="M317.01,115.31c-2.13-12.74-13.12-24.17-26.93-22.15c-1.58,0.23-0.91,2.64,0.66,2.41
						c12.53-1.83,21.98,9.18,23.86,20.4C314.87,117.55,317.27,116.88,317.01,115.31L317.01,115.31z"/>
				</g>
			</g>
			<g>
				<g>
					<path class="st10" d="M283.46,94.78c0.01,0.28,0.04,0.55,0.14,0.81c0.25,0.63,0.84,1.06,1.53,0.87c0.6-0.16,1.12-0.9,0.87-1.53
						c-0.09-0.14-0.11-0.19-0.05-0.15C285.91,93.17,283.41,93.17,283.46,94.78L283.46,94.78z"/>
				</g>
			</g>
			<g>
				<g>
					<path class="st10" d="M280.27,95.18c-0.03,0.33,0.02,0.66,0.12,0.97c0.22,0.63,0.85,1.06,1.53,0.87
						c0.61-0.17,1.1-0.9,0.87-1.53c-0.08-0.21-0.06-0.08-0.04-0.31c0.06-0.67-0.62-1.25-1.25-1.25
						C280.79,93.93,280.33,94.5,280.27,95.18L280.27,95.18z"/>
				</g>
			</g>
			<g>
				<g>
					<path class="st10" d="M277.1,96.06c0.09,0.5,0.43,1.01,0.97,1.11c0.57,0.1,1.09-0.07,1.41-0.57c0.01-0.02,0.03-0.04,0.04-0.07
						c0.36-0.57,0.12-1.37-0.45-1.71c-0.6-0.35-1.35-0.12-1.71,0.45c-0.01,0.02-0.03,0.04-0.04,0.07c0.47-0.19,0.94-0.38,1.41-0.57
						c-0.01,0-0.02,0-0.04-0.01c0.29,0.29,0.58,0.58,0.87,0.87c-0.04-0.07-0.05-0.15-0.06-0.23c-0.11-0.66-0.93-1.04-1.53-0.87
						C277.27,94.72,276.99,95.4,277.1,96.06L277.1,96.06z"/>
				</g>
			</g>
			<g>
				<g>
					<path class="st10" d="M271.3,97.81c-3.47,1.29-4.58,4.6-5.64,7.84c-0.5,1.53,1.91,2.19,2.41,0.66
						c0.73-2.24,1.43-5.18,3.89-6.09C273.45,99.66,272.81,97.25,271.3,97.81L271.3,97.81z"/>
				</g>
			</g>
			<g>
				<g>
					<path class="st10" d="M345.15,118.37c14.3-1.38,21.08,19.26,11.48,28.26c-1.17,1.1,0.59,2.86,1.76,1.76
						c11.12-10.42,3.24-34.11-13.25-32.52C343.57,116.03,343.55,118.53,345.15,118.37L345.15,118.37z"/>
				</g>
			</g>
			<g>
				<g>
					<path class="st10" d="M352.24,150.7c-0.01,0,0.33,0.17,0.21,0.1c0.07,0.03,0.11,0.17,0.06,0.04c0.26,0.62,0.83,1.07,1.53,0.87
						c0.59-0.16,1.13-0.91,0.87-1.53c-0.29-0.7-0.7-1.31-1.41-1.63c-0.61-0.28-1.34-0.18-1.71,0.45
						C351.48,149.53,351.62,150.42,352.24,150.7L352.24,150.7z"/>
				</g>
			</g>
			<g>
				<g>
					<path class="st10" d="M351.68,150.43c-0.05-0.01-0.1-0.01-0.15-0.02c-0.67-0.08-1.25,0.63-1.25,1.25
						c0,0.74,0.58,1.17,1.25,1.25c0.05,0.01,0.1,0.01,0.15,0.02c0.67,0.08,1.25-0.63,1.25-1.25
						C352.92,150.94,352.35,150.51,351.68,150.43L351.68,150.43z"/>
				</g>
			</g>
			<g>
				<g>
					<path class="st10" d="M357.87,163.88c4.48,1.41,4.71,7.87,1.73,10.82c-2.74,2.71-7.27,2.31-10.79,2.09
						c-1.6-0.1-1.6,2.39,0,2.49c5.45,0.34,11.83,0.12,14.43-5.58c2.06-4.51,0.26-10.66-4.71-12.23
						C357,160.99,356.35,163.4,357.87,163.88L357.87,163.88z"/>
				</g>
			</g>
			<g>
				<g>
					<path class="st10" d="M343.02,176.7c-0.04,0.36-0.15,0.71-0.28,1.04c-0.24,0.63,0.26,1.37,0.87,1.53
						c0.7,0.19,1.29-0.24,1.53-0.87c0.21-0.55,0.31-1.12,0.37-1.71c0.07-0.67-0.62-1.25-1.25-1.25
						C343.54,175.46,343.09,176.03,343.02,176.7L343.02,176.7z"/>
				</g>
			</g>
			<g>
				<g>
					<path class="st10" d="M340.26,176.19c-0.25,0.67-0.26,1.4-0.01,2.08c0.23,0.63,0.85,1.06,1.53,0.87
						c0.61-0.17,1.1-0.9,0.87-1.53c-0.12-0.33-0.11-0.41,0.01-0.75c0.24-0.63-0.27-1.37-0.87-1.53
						C341.09,175.13,340.5,175.56,340.26,176.19L340.26,176.19z"/>
				</g>
			</g>
			<g>
				<g>
					<path class="st10" d="M339.42,117.23c0.08,0.22,0.16,0.44,0.24,0.66c0.23,0.63,0.85,1.06,1.53,0.87
						c0.61-0.17,1.1-0.9,0.87-1.53c-0.08-0.22-0.16-0.44-0.24-0.66c-0.23-0.63-0.85-1.06-1.53-0.87
						C339.68,115.86,339.19,116.59,339.42,117.23L339.42,117.23z"/>
				</g>
			</g>
			<g>
				<g>
					<path class="st10" d="M335.49,118.61c0.08,0.17,0.17,0.33,0.25,0.5c0.3,0.6,1.15,0.77,1.71,0.45c0.61-0.36,0.75-1.1,0.45-1.71
						c-0.08-0.17-0.17-0.33-0.25-0.5c-0.3-0.6-1.15-0.77-1.71-0.45C335.33,117.26,335.19,118,335.49,118.61L335.49,118.61z"/>
				</g>
			</g>
			<g>
				<g>
					<path class="st10" d="M286.76,156.63c-7.32-0.53-12.74-4.3-16.04-10.82c-0.72-1.43-2.88-0.17-2.15,1.26
						c3.71,7.34,10.01,11.46,18.2,12.06C288.36,159.24,288.35,156.75,286.76,156.63L286.76,156.63z"/>
				</g>
			</g>
		</g>
		<g>
			<path class="st11" d="M81.71,252.25c0,0,138.59,78.75,257.28,0v48.21c-118.69,78.75-257.28,0-257.28,0V252.25z"/>
			<path class="st11" d="M338.99,275.37l41.73-23.12l-14.76,29.44l25.94,12.17c0,0-37.64,26.34-77.52,37.92l-6.35-43.22
				L338.99,275.37z"/>
			<path class="st12" d="M314.37,331.77c10.14-8.18,24.62-31.32,24.62-31.32s-19.79,12.01-27.46,15.38L314.37,331.77z"/>
			<path class="st11" d="M81.64,275.37l-41.73-23.12l14.76,29.44l-25.93,12.17c0,0,37.64,26.34,77.52,37.92l6.35-43.22L81.64,275.37
				z"/>
			<path class="st12" d="M106.27,331.77c-10.14-8.18-24.62-31.32-24.62-31.32s19.56,9.61,27.37,12.61L106.27,331.77z"/>
		</g>
		<g>
			<path class="st8" d="M148.65,298.49c-0.33,1.34-1.43,2.15-2.6,2.09l-0.02,0.07c1.06,0.49,1.65,1.71,1.32,3.05l-1.67,6.66
				c-0.85,3.4-2.89,4.82-5.82,4.1l-7.46-1.84c-0.31-0.08-0.44-0.34-0.35-0.7l6.97-27.8c0.1-0.4,0.33-0.53,0.64-0.46l7.46,1.84
				c2.92,0.72,4.06,2.92,3.2,6.33L148.65,298.49z M142.9,303.91c0.24-0.94-0.04-1.55-0.88-1.75l-2.83-0.7l-1.83,7.31l2.83,0.7
				c0.81,0.2,1.36-0.16,1.61-1.14L142.9,303.91z M145.93,291.82c0.24-0.94-0.04-1.55-0.88-1.75l-2.83-0.7l-1.83,7.31l2.83,0.7
				c0.81,0.2,1.37-0.2,1.6-1.1L145.93,291.82z"/>
			<path class="st8" d="M159.66,288.33c0.31,0.07,0.45,0.33,0.38,0.69L154,317.03c-0.08,0.37-0.31,0.54-0.63,0.48l-3.26-0.69
				c-0.34-0.07-0.45-0.33-0.38-0.69l6.04-28.01c0.08-0.37,0.28-0.55,0.63-0.48L159.66,288.33z"/>
			<path class="st8" d="M172.49,290.77c2.97,0.52,4.21,2.64,3.59,6.09l-0.7,3.89c-0.07,0.37-0.26,0.56-0.61,0.5l-3.28-0.58
				c-0.32-0.06-0.47-0.31-0.4-0.68l0.51-2.86c0.17-0.96-0.15-1.54-1-1.69l-1.51-0.27c-0.79-0.14-1.35,0.29-1.53,1.25l-0.91,5.07
				l7,4.18c0.49,0.35,0.7,0.8,0.58,1.5l-1.52,8.48c-0.62,3.45-2.53,5.01-5.49,4.49l-3.54-0.62c-2.93-0.52-4.21-2.63-3.59-6.08
				l0.69-3.86c0.07-0.4,0.3-0.55,0.61-0.5l3.28,0.58c0.35,0.06,0.47,0.27,0.4,0.68l-0.51,2.83c-0.18,0.99,0.21,1.55,1,1.69
				l1.51,0.27c0.82,0.14,1.35-0.25,1.53-1.25l0.88-4.88l-6.96-4.18c-0.53-0.32-0.73-0.81-0.61-1.51l1.56-8.66
				c0.62-3.45,2.56-5,5.49-4.49L172.49,290.77z"/>
			<path class="st8" d="M192.12,293.58c0.35,0.05,0.48,0.29,0.43,0.66l-0.49,3.7c-0.05,0.37-0.24,0.57-0.59,0.53l-3.69-0.48
				l-3.21,24.11c-0.05,0.41-0.24,0.57-0.59,0.53l-3.3-0.43c-0.32-0.04-0.48-0.25-0.43-0.66l3.21-24.11l-3.69-0.48
				c-0.32-0.04-0.48-0.29-0.43-0.66l0.49-3.7c0.05-0.37,0.27-0.57,0.59-0.53L192.12,293.58z"/>
			<path class="st8" d="M208.02,309.43c-0.2,2.49-1.13,4.07-2.72,4.73l1.43,9.91c0.06,0.45-0.15,0.66-0.5,0.63l-3.33-0.25
				c-0.32-0.02-0.46-0.22-0.5-0.56l-1.39-9.6l-2.21-0.17l-0.75,9.37c-0.03,0.37-0.24,0.58-0.56,0.56l-3.33-0.25
				c-0.32-0.02-0.49-0.26-0.46-0.63l2.28-28.55c0.03-0.37,0.24-0.58,0.56-0.56l8.02,0.61c3,0.23,4.45,2.21,4.17,5.7L208.02,309.43z
				 M202.36,309.45c0.83,0.06,1.32-0.42,1.4-1.39l0.56-6.99c0.08-0.97-0.33-1.52-1.16-1.58l-3.17-0.24l-0.8,9.96L202.36,309.45z"/>
			<path class="st8" d="M212.41,300.53c0.07-3.5,1.71-5.34,4.73-5.29l3.59,0.06c3.01,0.05,4.58,1.94,4.5,5.45l-0.4,19.08
				c-0.07,3.5-1.71,5.34-4.73,5.29l-3.59-0.06c-3.01-0.05-4.58-1.94-4.5-5.45L212.41,300.53z M219.41,320.3
				c0.83,0.01,1.29-0.46,1.31-1.47l0.36-17.22c0.02-0.97-0.42-1.5-1.25-1.51l-1.86-0.03c-0.83-0.01-1.29,0.5-1.31,1.47l-0.36,17.22
				c-0.02,1.01,0.42,1.5,1.25,1.51L219.41,320.3z"/>
			<path class="st8" d="M240,294.8c0.35-0.02,0.52,0.2,0.54,0.57l0.16,3.72c0.01,0.37-0.14,0.6-0.49,0.62l-3.72,0.17l1.01,24.28
				c0.02,0.41-0.14,0.6-0.49,0.62l-3.33,0.15c-0.32,0.01-0.52-0.16-0.54-0.57l-1.01-24.28l-3.72,0.17c-0.32,0.01-0.52-0.2-0.54-0.57
				l-0.15-3.72c-0.02-0.37,0.17-0.61,0.49-0.62L240,294.8z"/>
			<path class="st8" d="M247.75,294.03c0.32-0.03,0.53,0.17,0.57,0.54l2.78,28.48c0.04,0.37-0.13,0.61-0.45,0.65l-3.32,0.34
				c-0.35,0.04-0.53-0.17-0.57-0.54l-2.78-28.48c-0.04-0.37,0.1-0.61,0.45-0.65L247.75,294.03z"/>
			<path class="st8" d="M269.34,290.59c0.41-0.08,0.68,0.14,0.76,0.62l4.97,27.88c0.08,0.48-0.09,0.77-0.5,0.85l-2.94,0.53
				c-0.41,0.08-0.68-0.14-0.76-0.62l-2.94-16.51l-0.22,0.04l-0.17,17.15c-0.02,0.46-0.2,0.72-0.58,0.79l-1.55,0.28
				c-0.38,0.07-0.64-0.11-0.81-0.53l-6.08-16.01l-0.22,0.04l2.94,16.51c0.08,0.48-0.09,0.77-0.5,0.85l-2.9,0.53
				c-0.41,0.07-0.68-0.14-0.76-0.62l-4.97-27.88c-0.08-0.48,0.09-0.77,0.5-0.85l4.17-0.76c0.38-0.07,0.64,0.11,0.81,0.53l6.76,17.63
				l0.25-18.9c0.02-0.46,0.2-0.72,0.58-0.79L269.34,290.59z"/>
			<path class="st8" d="M286.63,289.98c0.11,0.36,0.06,0.64-0.31,0.76l-7.68,2.34l2.15,7.13l5.86-1.79
				c0.31-0.09,0.56,0.06,0.67,0.46l1.06,3.53c0.12,0.39,0,0.66-0.31,0.76l-5.86,1.79l2.17,7.2l7.67-2.34
				c0.37-0.11,0.55,0.03,0.66,0.42l1.07,3.57c0.11,0.36,0.05,0.61-0.32,0.72l-11.3,3.44c-0.28,0.08-0.53-0.07-0.63-0.43l-8.25-27.38
				c-0.11-0.36,0.01-0.63,0.29-0.71l11.3-3.44c0.37-0.11,0.56,0.06,0.66,0.42L286.63,289.98z"/>
		</g>
	</g>
</g>
</svg>
